<svg xmlns="http://www.w3.org/2000/svg" viewBox="0 0 900 1120">
  <rect width="900" height="1120" fill="#FAF8F3"/>
  <rect x="74" y="74" width="752" height="972" fill="#FFFDF9" stroke="#B6C0BC" stroke-width="3"/>
  <g fill="none" stroke="#161616" stroke-linecap="round" stroke-linejoin="round" opacity=".72">
    <path d="M450 914C408 694 383 505 376 272" stroke-width="7"/>
    <path d="M454 914C518 720 569 526 608 332" stroke-width="7"/>
    <path d="M438 914C343 746 275 594 232 458" stroke-width="6"/>
    <path d="M466 914C596 748 671 612 702 506" stroke-width="6"/>
    <path d="M376 272c-66-78-8-182 90-166c84 14 113 123 37 176c-47 32-90 29-127-10Z" stroke-width="5"/>
    <path d="M585 330c-70-64-25-168 68-166c89 2 127 108 55 168c-40 33-82 32-123-2Z" stroke-width="5"/>
    <path d="M210 459c-61-48-32-140 47-148c82-8 121 87 61 142c-34 31-70 33-108 6Z" stroke-width="5"/>
    <path d="M688 505c-49-47-20-127 48-130c70-3 102 79 50 127c-30 27-62 28-98 3Z" stroke-width="5"/>
    <path d="M315 640c45-36 89-40 132-13c-52 31-96 35-132 13Z" stroke-width="4"/>
    <path d="M526 622c48-22 88-16 121 18c-53 15-93 10-121-18Z" stroke-width="4"/>
  </g>
</svg>
