<svg xmlns="http://www.w3.org/2000/svg" viewBox="0 0 900 1120">
  <rect width="900" height="1120" fill="#FFFDF9"/>
  <rect x="84" y="84" width="732" height="952" fill="#DDE7ED" opacity=".55"/>
  <g fill="none" stroke="#161616" stroke-linecap="round" stroke-linejoin="round" opacity=".75">
    <path d="M449 930C418 716 396 520 380 294" stroke-width="8"/>
    <path d="M458 930C515 716 562 526 604 316" stroke-width="8"/>
    <path d="M431 930C328 734 264 588 218 442" stroke-width="7"/>
    <path d="M475 930C609 760 692 614 744 470" stroke-width="7"/>
    <path d="M353 294c-82-78-19-200 89-188c108 12 143 146 49 208c-51 34-97 27-138-20Z" stroke-width="5"/>
    <path d="M579 315c-81-76-21-197 87-188c109 9 147 144 54 209c-52 36-97 29-141-21Z" stroke-width="5"/>
    <path d="M195 444c-62-60-20-161 66-163c87-1 126 103 55 161c-40 33-80 33-121 2Z" stroke-width="5"/>
    <path d="M720 472c-61-58-20-157 64-158c84-1 122 100 53 157c-39 32-78 32-117 1Z" stroke-width="5"/>
    <path d="M320 610c64-39 121-39 171 0c-72 30-129 30-171 0Z" stroke-width="4"/>
    <path d="M502 636c71-28 128-17 171 33c-77 17-134 6-171-33Z" stroke-width="4"/>
  </g>
</svg>
