<svg xmlns="http://www.w3.org/2000/svg" viewBox="0 0 1200 720" fill="none">
  <g stroke="#718DA5" stroke-width="1.4" stroke-linecap="round" stroke-linejoin="round" opacity=".34">
    <path d="M62 648C122 528 121 394 80 262C63 207 53 149 75 72"/>
    <path d="M80 262c42-18 76-45 101-82"/>
    <path d="M92 311c50-8 93-28 128-58"/>
    <path d="M91 366c43 11 91 6 146-15"/>
    <path d="M75 438c54 18 101 14 143-12"/>
    <path d="M1035 663c-48-116-42-253 19-410c22-57 38-112 21-181"/>
    <path d="M1054 253c-48-16-87-43-119-82"/>
    <path d="M1035 314c-58-9-107-31-147-65"/>
    <path d="M1017 385c-48 10-98 2-151-26"/>
    <path d="M1032 460c-58 14-106 6-145-24"/>
    <path d="M181 180c8-34 43-52 69-32c25 21 17 61-18 78c-34 17-63-12-51-46Z"/>
    <path d="M219 263c15-29 53-38 72-11c19 27 0 61-38 67c-38 6-51-25-34-56Z"/>
    <path d="M897 174c-12-33-49-47-72-23c-23 24-9 63 28 75c36 12 58-18 44-52Z"/>
    <path d="M857 279c-18-27-57-32-72-3c-16 29 7 60 45 61c38 1 48-27 27-58Z"/>
  </g>
</svg>
