<svg xmlns="http://www.w3.org/2000/svg" viewBox="0 0 420 420" fill="none">
  <g stroke="#161616" stroke-width="1.5" stroke-linecap="round" stroke-linejoin="round" opacity=".5">
    <path d="M80 345c92-72 147-165 178-282"/>
    <path d="M166 215c-37 2-68-13-94-45c43-4 75 10 94 45Z"/>
    <path d="M221 123c-25-25-33-57-24-98c31 27 39 61 24 98Z"/>
    <path d="M190 175c30-27 66-36 109-27c-30 35-67 44-109 27Z"/>
    <path d="M130 271c-38 12-73 5-105-23c44-15 79-7 105 23Z"/>
    <path d="M256 68c25-20 55-25 91-14c-26 27-57 32-91 14Z"/>
    <path d="M276 84c28 2 50 18 67 48c-36 2-59-14-67-48Z"/>
    <path d="M268 64c-5-29 5-54 30-77c12 35 2 61-30 77Z"/>
  </g>
</svg>
