<svg xmlns="http://www.w3.org/2000/svg" viewBox="0 0 1400 900">
  <rect width="1400" height="900" fill="#FFFDF9"/>
  <rect x="110" y="260" width="1180" height="410" fill="#FAF8F3" stroke="#B6C0BC" stroke-width="4"/>
  <g fill="none" stroke="#718DA5" stroke-linecap="round" stroke-linejoin="round">
    <path d="M220 560c70-150 94-250 72-300M410 560c52-142 80-248 84-318M615 560c14-122 28-226 42-314M810 560c-26-116-38-220-36-312M1000 560c-66-138-92-246-78-324M1180 560c-78-116-118-214-120-294" stroke-width="5"/>
    <path d="M292 260c-48-44-22-116 42-119c65-3 96 73 48 120c-28 27-58 27-90-1ZM494 244c-50-52-14-134 58-133c74 1 104 88 46 134c-33 27-66 27-104-1ZM660 246c-42-48-8-118 56-114c62 4 84 80 31 119c-31 23-59 21-87-5ZM774 248c45-50 122-20 124 47c2 66-76 96-122 46c-26-28-27-59-2-93ZM922 236c55-48 136-6 124 66c-12 71-104 91-142 31c-22-34-16-66 18-97ZM1060 266c58-42 132 8 110 76c-21 65-110 74-142 13c-18-34-8-64 32-89Z" stroke-width="4"/>
  </g>
</svg>
